<svg width="200" height="200" viewBox="0 0 200 200" fill="none" xmlns="http://www.w3.org/2000/svg">
<rect width="200" height="200" fill="#6272A4"/>
<path fill-rule="evenodd" clip-rule="evenodd" d="M53 53H60.5269V52H53V53ZM68.0538 53H90.2581V52H68.0538V53ZM97.7849 53H105.312V52H97.7849V53ZM112.839 53H135.043V52H112.839V53ZM53 63.0796H75.2043V62.0796H53V63.0796ZM82.7312 63.0796H127.516V62.0796H82.7312V63.0796ZM135.796 63.0796H158V62.0796H135.796V63.0796ZM53 73.1591H97.7849V72.1591H53V73.1591ZM105.312 73.1591H112.839V72.1591H105.312V73.1591ZM120.742 73.1591H142.946V72.1591H120.742V73.1591ZM53 83.7427H75.2043V82.7427H53V83.7427ZM82.7312 83.7427H127.516V82.7427H82.7312V83.7427ZM135.796 83.7427H158V82.7427H135.796V83.7427ZM53 93.8223H60.5269V92.8223H53V93.8223ZM68.0538 93.8223H112.839V92.8223H68.0538V93.8223ZM120.742 93.8223H142.946V92.8223H120.742V93.8223ZM150.473 93.8223H158V92.8223H150.473V93.8223ZM53 104.028H60.5269V103.028H53V104.028ZM68.0538 104.028H90.2581V103.028H68.0538V104.028ZM97.7849 104.028H105.312V103.028H97.7849V104.028ZM112.839 104.028H135.043V103.028H112.839V104.028ZM142.946 104.028H150.473V103.028H142.946V104.028ZM53 114.107H75.2043V113.107H53V114.107ZM82.7312 114.107H127.516V113.107H82.7312V114.107ZM135.796 114.107H158V113.107H135.796V114.107ZM53 124.187H97.7849V123.187H53V124.187ZM105.312 124.187H112.839V123.187H105.312V124.187ZM120.742 124.187H142.946V123.187H120.742V124.187ZM53 134.771H75.2043V133.771H53V134.771ZM82.7312 134.771H127.516V133.771H82.7312V134.771ZM135.796 134.771H158V133.771H135.796V134.771ZM68.0538 144.85H112.839V143.85H68.0538V144.85ZM120.742 144.85H142.946V143.85H120.742V144.85ZM150.473 144.85H158V143.85H150.473V144.85Z" fill="#F1FA8C"/>
<path d="M19 175.572V67.2507C26.4546 149.484 90.7553 206.027 151.045 177.532C204.688 152.178 187.666 77.1301 148.989 32" stroke="#F1FA8C" stroke-width="3"/>
<path d="M67.4072 9.4V22H66.3092L58.2092 11.776V22H56.8772V9.4H57.9752L66.0932 19.624V9.4H67.4072ZM75.1198 22.09C74.2078 22.09 73.3858 21.886 72.6538 21.478C71.9218 21.058 71.3458 20.482 70.9258 19.75C70.5058 19.018 70.2958 18.19 70.2958 17.266C70.2958 16.342 70.5058 15.514 70.9258 14.782C71.3458 14.05 71.9218 13.48 72.6538 13.072C73.3858 12.664 74.2078 12.46 75.1198 12.46C76.0318 12.46 76.8538 12.664 77.5858 13.072C78.3178 13.48 78.8878 14.05 79.2958 14.782C79.7158 15.514 79.9258 16.342 79.9258 17.266C79.9258 18.19 79.7158 19.018 79.2958 19.75C78.8878 20.482 78.3178 21.058 77.5858 21.478C76.8538 21.886 76.0318 22.09 75.1198 22.09ZM75.1198 20.956C75.7918 20.956 76.3918 20.806 76.9198 20.506C77.4598 20.194 77.8798 19.756 78.1798 19.192C78.4798 18.628 78.6298 17.986 78.6298 17.266C78.6298 16.546 78.4798 15.904 78.1798 15.34C77.8798 14.776 77.4598 14.344 76.9198 14.044C76.3918 13.732 75.7918 13.576 75.1198 13.576C74.4478 13.576 73.8418 13.732 73.3018 14.044C72.7738 14.344 72.3538 14.776 72.0418 15.34C71.7418 15.904 71.5918 16.546 71.5918 17.266C71.5918 17.986 71.7418 18.628 72.0418 19.192C72.3538 19.756 72.7738 20.194 73.3018 20.506C73.8418 20.806 74.4478 20.956 75.1198 20.956ZM87.5209 21.424C87.2809 21.64 86.9809 21.808 86.6209 21.928C86.2729 22.036 85.9069 22.09 85.5229 22.09C84.6349 22.09 83.9509 21.85 83.4709 21.37C82.9909 20.89 82.7509 20.212 82.7509 19.336V13.612H81.0589V12.532H82.7509V10.462H84.0289V12.532H86.9089V13.612H84.0289V19.264C84.0289 19.828 84.1669 20.26 84.4429 20.56C84.7309 20.848 85.1389 20.992 85.6669 20.992C85.9309 20.992 86.1829 20.95 86.4229 20.866C86.6749 20.782 86.8909 20.662 87.0709 20.506L87.5209 21.424ZM97.7574 17.662H89.8374C89.9094 18.646 90.2874 19.444 90.9714 20.056C91.6554 20.656 92.5194 20.956 93.5634 20.956C94.1514 20.956 94.6914 20.854 95.1834 20.65C95.6754 20.434 96.1014 20.122 96.4614 19.714L97.1814 20.542C96.7614 21.046 96.2334 21.43 95.5974 21.694C94.9734 21.958 94.2834 22.09 93.5274 22.09C92.5554 22.09 91.6914 21.886 90.9354 21.478C90.1914 21.058 89.6094 20.482 89.1894 19.75C88.7694 19.018 88.5594 18.19 88.5594 17.266C88.5594 16.342 88.7574 15.514 89.1534 14.782C89.5614 14.05 90.1134 13.48 90.8094 13.072C91.5174 12.664 92.3094 12.46 93.1854 12.46C94.0614 12.46 94.8474 12.664 95.5434 13.072C96.2394 13.48 96.7854 14.05 97.1814 14.782C97.5774 15.502 97.7754 16.33 97.7754 17.266L97.7574 17.662ZM93.1854 13.558C92.2734 13.558 91.5054 13.852 90.8814 14.44C90.2694 15.016 89.9214 15.772 89.8374 16.708H96.5514C96.4674 15.772 96.1134 15.016 95.4894 14.44C94.8774 13.852 94.1094 13.558 93.1854 13.558ZM105.255 12.46C106.143 12.46 106.947 12.664 107.667 13.072C108.387 13.468 108.951 14.032 109.359 14.764C109.767 15.496 109.971 16.33 109.971 17.266C109.971 18.202 109.767 19.036 109.359 19.768C108.951 20.5 108.387 21.07 107.667 21.478C106.947 21.886 106.143 22.09 105.255 22.09C104.463 22.09 103.749 21.922 103.113 21.586C102.489 21.25 101.985 20.764 101.601 20.128V22H100.377V8.644H101.655V14.332C102.051 13.72 102.555 13.258 103.167 12.946C103.791 12.622 104.487 12.46 105.255 12.46ZM105.165 20.956C105.825 20.956 106.425 20.806 106.965 20.506C107.505 20.194 107.925 19.756 108.225 19.192C108.537 18.628 108.693 17.986 108.693 17.266C108.693 16.546 108.537 15.904 108.225 15.34C107.925 14.776 107.505 14.344 106.965 14.044C106.425 13.732 105.825 13.576 105.165 13.576C104.493 13.576 103.887 13.732 103.347 14.044C102.819 14.344 102.399 14.776 102.087 15.34C101.787 15.904 101.637 16.546 101.637 17.266C101.637 17.986 101.787 18.628 102.087 19.192C102.399 19.756 102.819 20.194 103.347 20.506C103.887 20.806 104.493 20.956 105.165 20.956ZM116.446 22.09C115.534 22.09 114.712 21.886 113.98 21.478C113.248 21.058 112.672 20.482 112.252 19.75C111.832 19.018 111.622 18.19 111.622 17.266C111.622 16.342 111.832 15.514 112.252 14.782C112.672 14.05 113.248 13.48 113.98 13.072C114.712 12.664 115.534 12.46 116.446 12.46C117.358 12.46 118.18 12.664 118.912 13.072C119.644 13.48 120.214 14.05 120.622 14.782C121.042 15.514 121.252 16.342 121.252 17.266C121.252 18.19 121.042 19.018 120.622 19.75C120.214 20.482 119.644 21.058 118.912 21.478C118.18 21.886 117.358 22.09 116.446 22.09ZM116.446 20.956C117.118 20.956 117.718 20.806 118.246 20.506C118.786 20.194 119.206 19.756 119.506 19.192C119.806 18.628 119.956 17.986 119.956 17.266C119.956 16.546 119.806 15.904 119.506 15.34C119.206 14.776 118.786 14.344 118.246 14.044C117.718 13.732 117.118 13.576 116.446 13.576C115.774 13.576 115.168 13.732 114.628 14.044C114.1 14.344 113.68 14.776 113.368 15.34C113.068 15.904 112.918 16.546 112.918 17.266C112.918 17.986 113.068 18.628 113.368 19.192C113.68 19.756 114.1 20.194 114.628 20.506C115.168 20.806 115.774 20.956 116.446 20.956ZM127.731 22.09C126.819 22.09 125.997 21.886 125.265 21.478C124.533 21.058 123.957 20.482 123.537 19.75C123.117 19.018 122.907 18.19 122.907 17.266C122.907 16.342 123.117 15.514 123.537 14.782C123.957 14.05 124.533 13.48 125.265 13.072C125.997 12.664 126.819 12.46 127.731 12.46C128.643 12.46 129.465 12.664 130.197 13.072C130.929 13.48 131.499 14.05 131.907 14.782C132.327 15.514 132.537 16.342 132.537 17.266C132.537 18.19 132.327 19.018 131.907 19.75C131.499 20.482 130.929 21.058 130.197 21.478C129.465 21.886 128.643 22.09 127.731 22.09ZM127.731 20.956C128.403 20.956 129.003 20.806 129.531 20.506C130.071 20.194 130.491 19.756 130.791 19.192C131.091 18.628 131.241 17.986 131.241 17.266C131.241 16.546 131.091 15.904 130.791 15.34C130.491 14.776 130.071 14.344 129.531 14.044C129.003 13.732 128.403 13.576 127.731 13.576C127.059 13.576 126.453 13.732 125.913 14.044C125.385 14.344 124.965 14.776 124.653 15.34C124.353 15.904 124.203 16.546 124.203 17.266C124.203 17.986 124.353 18.628 124.653 19.192C124.965 19.756 125.385 20.194 125.913 20.506C126.453 20.806 127.059 20.956 127.731 20.956ZM138.656 17.248L136.424 19.3V22H135.146V8.644H136.424V17.698L142.076 12.532H143.66L139.61 16.402L144.038 22H142.472L138.656 17.248Z" fill="#F1FA8C"/>
</svg>
