<svg width="200" height="200" viewBox="0 0 200 200" fill="none" xmlns="http://www.w3.org/2000/svg">
<rect width="200" height="200" fill="#6272A4"/>
<path fill-rule="evenodd" clip-rule="evenodd" d="M51 44H58.5269V43H51V44ZM66.0538 44H88.2581V43H66.0538V44ZM95.7849 44H103.312V43H95.7849V44ZM110.839 44H133.043V43H110.839V44ZM51 54.0796H73.2043V53.0796H51V54.0796ZM80.7312 54.0796H125.516V53.0796H80.7312V54.0796ZM133.796 54.0796H156V53.0796H133.796V54.0796ZM51 64.1591H95.7849V63.1591H51V64.1591ZM103.312 64.1591H110.839V63.1591H103.312V64.1591ZM118.742 64.1591H140.946V63.1591H118.742V64.1591ZM51 74.7427H73.2043V73.7427H51V74.7427ZM80.7312 74.7427H125.516V73.7427H80.7312V74.7427ZM133.796 74.7427H156V73.7427H133.796V74.7427ZM51 84.8223H58.5269V83.8223H51V84.8223ZM66.0538 84.8223H110.839V83.8223H66.0538V84.8223ZM118.742 84.8223H140.946V83.8223H118.742V84.8223ZM148.473 84.8223H156V83.8223H148.473V84.8223ZM51 95.0278H58.5269V94.0278H51V95.0278ZM66.0538 95.0278H88.2581V94.0278H66.0538V95.0278ZM95.7849 95.0278H103.312V94.0278H95.7849V95.0278ZM110.839 95.0278H133.043V94.0278H110.839V95.0278ZM140.946 95.0278H148.473V94.0278H140.946V95.0278ZM51 105.107H73.2043V104.107H51V105.107ZM80.7312 105.107H125.516V104.107H80.7312V105.107ZM133.796 105.107H156V104.107H133.796V105.107ZM51 115.187H95.7849V114.187H51V115.187ZM103.312 115.187H110.839V114.187H103.312V115.187ZM118.742 115.187H140.946V114.187H118.742V115.187ZM51 125.771H73.2043V124.771H51V125.771ZM80.7312 125.771H125.516V124.771H80.7312V125.771ZM133.796 125.771H156V124.771H133.796V125.771ZM66.0538 135.85H110.839V134.85H66.0538V135.85ZM118.742 135.85H140.946V134.85H118.742V135.85ZM148.473 135.85H156V134.85H148.473V135.85Z" fill="#F1FA8C"/>
<path d="M17 176V58.2507C24.4546 140.484 88.7553 197.027 149.045 168.532C202.688 143.178 185.666 68.1301 146.989 23" stroke="#F1FA8C" stroke-width="3"/>
</svg>
